<?xml version="1.0" encoding="UTF-8" standalone="no"?>
<!DOCTYPE svg PUBLIC "-//W3C//DTD SVG 1.1 Tiny//EN" "http://www.w3.org/Graphics/SVG/1.1/DTD/svg11-tiny.dtd">
<svg xmlns="http://www.w3.org/2000/svg" xmlns:xlink="http://www.w3.org/1999/xlink" baseProfile="tiny" height="13.094px" version="1.1" viewBox="0 0 34.922 13.094" width="34.922px" x="0px" y="0px">
<g>
<g>
<g>
<g>
<g>
<g>
<path d="M17.459,0C7.769,0,0,2.904,0,6.545c0,3.62,7.833,6.55,17.459,6.55c9.631,0,17.463-2.938,17.463-6.55        C34.922,2.936,27.09,0,17.459,0z M34.817,6.041c0.004,0.032,0.01,0.063,0.016,0.096C34.827,6.103,34.821,6.073,34.817,6.041z" fill="#D1D3D4"/>
</g>
<radialGradient cx="-1284.999" cy="265.6147" gradientTransform="matrix(0.3424 0 0 0.3338 457.3903 -16.754)" gradientUnits="userSpaceOnUse" id="SVGID_1_" r="220.2286">
<stop offset="0" style="stop-color:#000000"/>
<stop offset="0.2164" style="stop-color:#00000B"/>
<stop offset="0.476" style="stop-color:#000024"/>
<stop offset="0.7" style="stop-color:#000033"/>
<stop offset="0.9045" style="stop-color:#004282"/>
<stop offset="0.9204" style="stop-color:#0063A1"/>
<stop offset="0.936" style="stop-color:#0084C0"/>
<stop offset="0.948" style="stop-color:#169BD4"/>
<stop offset="0.955" style="stop-color:#1AA6DF"/>
<stop offset="1" style="stop-color:#1AA6DF"/>
</radialGradient>
<path d="M17.461,0.26c-9.5,0-17.193,2.808-17.193,6.283c0,3.472,7.693,6.282,17.193,6.282       c9.502,0,17.194-2.811,17.194-6.282C34.655,3.068,26.963,0.26,17.461,0.26z" fill="url(#SVGID_1_)"/>
<g>
<g>
<linearGradient gradientTransform="matrix(0.1514 0 0 0.1514 522.5236 -50.0526)" gradientUnits="userSpaceOnUse" id="SVGID_2_" x1="-3336.1377" x2="-3336.1377" y1="416.1323" y2="328.2456">
<stop offset="0" style="stop-color:#00053E"/>
<stop offset="0.1748" style="stop-color:#00073F"/>
<stop offset="0.3297" style="stop-color:#001046"/>
<stop offset="0.4771" style="stop-color:#001950"/>
<stop offset="0.6198" style="stop-color:#00245D"/>
<stop offset="0.758" style="stop-color:#002F6D"/>
<stop offset="0.809" style="stop-color:#003475"/>
<stop offset="0.9226" style="stop-color:#005693"/>
<stop offset="1" style="stop-color:#006CA9"/>
</linearGradient>
<path d="M1.64,6.787c0-2.877,7.117-5.209,15.899-5.209c8.076,0,14.746,1.974,15.764,4.527         c-0.678-2.688-7.511-4.799-15.845-4.799c-8.779,0-15.897,2.346-15.897,5.239c0,0.235,0.049,0.467,0.14,0.694         C1.663,7.089,1.64,6.939,1.64,6.787z" fill="url(#SVGID_2_)"/>
<linearGradient gradientTransform="matrix(0.1514 0 0 0.1514 522.5236 -50.0526)" gradientUnits="userSpaceOnUse" id="SVGID_3_" x1="-3334.7129" x2="-3334.7129" y1="416.1323" y2="328.247">
<stop offset="0" style="stop-color:#00053E"/>
<stop offset="0.1748" style="stop-color:#00073F"/>
<stop offset="0.3297" style="stop-color:#001046"/>
<stop offset="0.4771" style="stop-color:#001950"/>
<stop offset="0.6198" style="stop-color:#00245D"/>
<stop offset="0.758" style="stop-color:#002F6D"/>
<stop offset="0.809" style="stop-color:#003475"/>
<stop offset="0.9226" style="stop-color:#005693"/>
<stop offset="1" style="stop-color:#006CA9"/>
</linearGradient>
<path d="M33.831,5.889c0.072,0.214,0.106,0.434,0.106,0.656c0,3.168-7.377,5.734-16.479,5.734         c-8.096,0-14.831-2.034-16.216-4.712c1.056,2.789,7.964,4.943,16.336,4.943c9.098,0,16.474-2.545,16.474-5.686         C34.053,6.506,33.978,6.194,33.831,5.889z" fill="url(#SVGID_3_)"/>
</g>
<g>
<linearGradient gradientTransform="matrix(0.1514 0 0 0.1514 522.525 -49.4334)" gradientUnits="userSpaceOnUse" id="SVGID_4_" x1="-3316.2676" x2="-3316.2676" y1="397.1792" y2="335.3777">
<stop offset="0" style="stop-color:#00053E"/>
<stop offset="0.1748" style="stop-color:#00073F"/>
<stop offset="0.3297" style="stop-color:#001046"/>
<stop offset="0.4771" style="stop-color:#001950"/>
<stop offset="0.6198" style="stop-color:#00245D"/>
<stop offset="0.758" style="stop-color:#002F6D"/>
<stop offset="0.809" style="stop-color:#003475"/>
<stop offset="0.9226" style="stop-color:#005693"/>
<stop offset="1" style="stop-color:#006CA9"/>
</linearGradient>
<path d="M20.53,7.1c-0.37,0.384-0.396,0.881-0.154,1.106c0.085,0.079,0.186,0.116,0.291,0.123         c-0.157-0.201-0.232-0.592-0.035-0.902c-0.036-0.09-0.043-0.196-0.022-0.297C20.616,7.092,20.571,7.06,20.53,7.1z" fill="url(#SVGID_4_)"/>
<linearGradient gradientTransform="matrix(0.1514 0 0 0.1514 522.525 -49.4334)" gradientUnits="userSpaceOnUse" id="SVGID_5_" x1="-3290.2207" x2="-3290.2207" y1="397.1333" y2="335.5754">
<stop offset="0" style="stop-color:#00053E"/>
<stop offset="0.1748" style="stop-color:#00073F"/>
<stop offset="0.3297" style="stop-color:#001046"/>
<stop offset="0.4771" style="stop-color:#001950"/>
<stop offset="0.6198" style="stop-color:#00245D"/>
<stop offset="0.758" style="stop-color:#002F6D"/>
<stop offset="0.809" style="stop-color:#003475"/>
<stop offset="0.9226" style="stop-color:#005693"/>
<stop offset="1" style="stop-color:#006CA9"/>
</linearGradient>
<path d="M24.34,7.933c-0.004-0.006-0.004-0.011-0.004-0.017c0,0.003,0,0.003,0,0.003         c0.005,0.059,0.02,0.169,0.032,0.248c0.02-0.035,0.04-0.074,0.058-0.116c0.015-0.03,0.01-0.04-0.005-0.045         C24.384,7.992,24.343,7.964,24.34,7.933z" fill="url(#SVGID_5_)"/>
<linearGradient gradientTransform="matrix(0.1514 0 0 0.1514 522.525 -49.4334)" gradientUnits="userSpaceOnUse" id="SVGID_6_" x1="-3286.4443" x2="-3286.4443" y1="396.9497" y2="335.4094">
<stop offset="0" style="stop-color:#00053E"/>
<stop offset="0.1748" style="stop-color:#00073F"/>
<stop offset="0.3297" style="stop-color:#001046"/>
<stop offset="0.4771" style="stop-color:#001950"/>
<stop offset="0.6198" style="stop-color:#00245D"/>
<stop offset="0.758" style="stop-color:#002F6D"/>
<stop offset="0.809" style="stop-color:#003475"/>
<stop offset="0.9226" style="stop-color:#005693"/>
<stop offset="1" style="stop-color:#006CA9"/>
</linearGradient>
<path d="M25,7.054c0.006,0.062,0.053,0.07,0.092,0.017c0.01-0.017,0.021-0.034,0.035-0.054         c-0.011-0.016-0.023-0.031-0.032-0.047c-0.056-0.062-0.183-0.199-0.308-0.31C24.912,6.78,24.987,6.921,25,7.054z" fill="url(#SVGID_6_)"/>
<linearGradient gradientTransform="matrix(0.1514 0 0 0.1514 522.525 -49.4334)" gradientUnits="userSpaceOnUse" id="SVGID_7_" x1="-3320.4629" x2="-3320.4629" y1="396.9771" y2="335.5162">
<stop offset="0" style="stop-color:#00053E"/>
<stop offset="0.1748" style="stop-color:#00073F"/>
<stop offset="0.3297" style="stop-color:#001046"/>
<stop offset="0.4771" style="stop-color:#001950"/>
<stop offset="0.6198" style="stop-color:#00245D"/>
<stop offset="0.758" style="stop-color:#002F6D"/>
<stop offset="0.809" style="stop-color:#003475"/>
<stop offset="0.9226" style="stop-color:#005693"/>
<stop offset="1" style="stop-color:#006CA9"/>
</linearGradient>
<path d="M19.89,7.012c0.017-0.025,0.032-0.048,0.05-0.068c-0.074-0.224-0.185-0.44-0.266-0.524         c0.102,0.133,0.148,0.329,0.14,0.574C19.813,7.058,19.86,7.054,19.89,7.012z" fill="url(#SVGID_7_)"/>
<linearGradient gradientTransform="matrix(0.1514 0 0 0.1514 522.525 -49.4334)" gradientUnits="userSpaceOnUse" id="SVGID_8_" x1="-3268.145" x2="-3268.145" y1="357.0933" y2="357.0933">
<stop offset="0" style="stop-color:#00053E"/>
<stop offset="0.1748" style="stop-color:#00073F"/>
<stop offset="0.3297" style="stop-color:#001046"/>
<stop offset="0.4771" style="stop-color:#001950"/>
<stop offset="0.6198" style="stop-color:#00245D"/>
<stop offset="0.758" style="stop-color:#002F6D"/>
<stop offset="0.809" style="stop-color:#003475"/>
<stop offset="0.9226" style="stop-color:#005693"/>
<stop offset="1" style="stop-color:#006CA9"/>
</linearGradient>
<polygon fill="url(#SVGID_8_)" points="27.728,4.63 27.728,4.63 27.728,4.63        "/>
<linearGradient gradientTransform="matrix(0.1514 0 0 0.1514 522.525 -49.4334)" gradientUnits="userSpaceOnUse" id="SVGID_9_" x1="-3296.001" x2="-3296.001" y1="397.1733" y2="335.4179">
<stop offset="0" style="stop-color:#00053E"/>
<stop offset="0.1748" style="stop-color:#00073F"/>
<stop offset="0.3297" style="stop-color:#001046"/>
<stop offset="0.4771" style="stop-color:#001950"/>
<stop offset="0.6198" style="stop-color:#00245D"/>
<stop offset="0.758" style="stop-color:#002F6D"/>
<stop offset="0.809" style="stop-color:#003475"/>
<stop offset="0.9226" style="stop-color:#005693"/>
<stop offset="1" style="stop-color:#006CA9"/>
</linearGradient>
<path d="M22.733,9.384c0.041,0.025,0.084,0.039,0.131,0.047c-0.014-0.06-0.023-0.119-0.023-0.169         c-0.006-0.433,0.129-0.864,0.475-1.288c0.415-0.515,0.855-0.77,1.159-0.63c-0.014-0.113-0.073-0.21-0.203-0.271         c-0.306-0.147-0.768,0.122-1.188,0.638c-0.344,0.423-0.528,0.854-0.535,1.272C22.545,9.132,22.602,9.317,22.733,9.384z" fill="url(#SVGID_9_)"/>
<linearGradient gradientTransform="matrix(0.1514 0 0 0.1514 522.525 -49.4334)" gradientUnits="userSpaceOnUse" id="SVGID_10_" x1="-3349.3218" x2="-3349.3218" y1="397.1411" y2="335.5608">
<stop offset="0" style="stop-color:#00053E"/>
<stop offset="0.1748" style="stop-color:#00073F"/>
<stop offset="0.3297" style="stop-color:#001046"/>
<stop offset="0.4771" style="stop-color:#001950"/>
<stop offset="0.6198" style="stop-color:#00245D"/>
<stop offset="0.758" style="stop-color:#002F6D"/>
<stop offset="0.809" style="stop-color:#003475"/>
<stop offset="0.9226" style="stop-color:#005693"/>
<stop offset="1" style="stop-color:#006CA9"/>
</linearGradient>
<path d="M16.266,7.153c0.053-0.024,0.061-0.056,0.051-0.104c-0.017-0.082-0.075-0.286-0.093-0.333         l0,0c0.014,0.044,0.002,0.078-0.052,0.1c-0.468,0.176-0.935,0.452-1.259,0.886c-0.369,0.491-0.468,1.085-0.223,1.427         c0.059,0.081,0.129,0.139,0.206,0.179c-0.132-0.409-0.035-0.957,0.275-1.378C15.494,7.495,15.855,7.332,16.266,7.153z" fill="url(#SVGID_10_)"/>
<linearGradient gradientTransform="matrix(0.1514 0 0 0.1514 522.525 -49.4334)" gradientUnits="userSpaceOnUse" id="SVGID_11_" x1="-3322.6758" x2="-3322.6758" y1="397.1333" y2="335.4857">
<stop offset="0" style="stop-color:#00053E"/>
<stop offset="0.1748" style="stop-color:#00073F"/>
<stop offset="0.3297" style="stop-color:#001046"/>
<stop offset="0.4771" style="stop-color:#001950"/>
<stop offset="0.6198" style="stop-color:#00245D"/>
<stop offset="0.758" style="stop-color:#002F6D"/>
<stop offset="0.809" style="stop-color:#003475"/>
<stop offset="0.9226" style="stop-color:#005693"/>
<stop offset="1" style="stop-color:#006CA9"/>
</linearGradient>
<path d="M21.475,8.662c-0.109,0.078-0.254,0.166-0.436,0.234c-0.223,0.082-0.328,0.114-0.531,0.111         c-0.26-0.002-0.492-0.111-0.659-0.367c-0.09-0.14-0.128-0.351-0.137-0.505c-0.001-0.017-0.024-0.047-0.048-0.009         c-0.435,0.666-0.841,1.309-1.275,1.984c-0.021,0.031-0.041,0.052-0.086,0.054c-0.268,0-0.56,0-0.854,0.001         c-0.031,0-0.053-0.016-0.057-0.035c0.021,0.104,0.058,0.29,0.069,0.334c0.006,0.029,0.03,0.045,0.063,0.045         c0.314,0,0.703,0,0.968-0.002c0.039-0.002,0.064-0.024,0.085-0.054c0.394-0.615,0.812-1.283,1.212-1.897         c0.09,0.309,0.135,0.454,0.3,0.602c0.163,0.148,0.319,0.187,0.547,0.189c0.206,0.002,0.409-0.082,0.649-0.182         c0.086-0.035,0.164-0.08,0.232-0.125c0-0.114,0.015-0.229,0.033-0.337C21.554,8.692,21.542,8.617,21.475,8.662z" fill="url(#SVGID_11_)"/>
<linearGradient gradientTransform="matrix(0.1514 0 0 0.1514 522.525 -49.4334)" gradientUnits="userSpaceOnUse" id="SVGID_12_" x1="-3290.1094" x2="-3290.1094" y1="397.2827" y2="335.1252">
<stop offset="0" style="stop-color:#00053E"/>
<stop offset="0.1748" style="stop-color:#00073F"/>
<stop offset="0.3297" style="stop-color:#001046"/>
<stop offset="0.4771" style="stop-color:#001950"/>
<stop offset="0.6198" style="stop-color:#00245D"/>
<stop offset="0.758" style="stop-color:#002F6D"/>
<stop offset="0.809" style="stop-color:#003475"/>
<stop offset="0.9226" style="stop-color:#005693"/>
<stop offset="1" style="stop-color:#006CA9"/>
</linearGradient>
<path d="M27.174,8.427c0,0.016-0.005,0.031-0.014,0.041c-0.416,0.508-0.877,0.988-1.316,1.327         c-0.685,0.529-1.367,0.664-1.705,0.323c-0.126-0.126-0.194-0.306-0.203-0.458c-0.005-0.083-0.047-0.087-0.086-0.05         c-0.402,0.4-1.104,0.843-1.742,0.528c-0.328-0.162-0.501-0.47-0.563-0.804c0,0.004,0.001,0.008,0.002,0.012         c0.041,0.238,0.091,0.58,0.203,0.794c0.072,0.14,0.236,0.298,0.336,0.345c0.566,0.281,1.375-0.035,1.894-0.537         c0.008-0.004,0.008-0.006,0.015-0.014c0.023,0.09,0.053,0.199,0.057,0.214c0.037,0.116,0.092,0.222,0.139,0.276         c0.355,0.4,1.111,0.219,1.896-0.389c0.436-0.34,0.763-0.68,1.162-1.143c0.016-0.02,0.013-0.047,0.006-0.092         C27.233,8.701,27.194,8.519,27.174,8.427z" fill="url(#SVGID_12_)"/>
<linearGradient gradientTransform="matrix(0.1514 0 0 0.1514 522.525 -49.4334)" gradientUnits="userSpaceOnUse" id="SVGID_13_" x1="-3311.0039" x2="-3311.0039" y1="397.3237" y2="335.3077">
<stop offset="0" style="stop-color:#00053E"/>
<stop offset="0.1748" style="stop-color:#00073F"/>
<stop offset="0.3297" style="stop-color:#001046"/>
<stop offset="0.4771" style="stop-color:#001950"/>
<stop offset="0.6198" style="stop-color:#00245D"/>
<stop offset="0.758" style="stop-color:#002F6D"/>
<stop offset="0.809" style="stop-color:#003475"/>
<stop offset="0.9226" style="stop-color:#005693"/>
<stop offset="1" style="stop-color:#006CA9"/>
</linearGradient>
<path d="M21.469,7.974c0.209-0.115,0.395-0.354,0.371-0.746c-0.014-0.195-0.067-0.396-0.158-0.559         c0.061,0.119,0.085,0.256,0.064,0.401c-0.04,0.253-0.176,0.475-0.41,0.591c-0.195,0.098-0.426,0.082-0.59-0.064         c-0.049-0.047-0.085-0.101-0.11-0.16c0.041,0.192,0.075,0.333,0.126,0.407C20.917,8.074,21.178,8.131,21.469,7.974z" fill="url(#SVGID_13_)"/>
<linearGradient gradientTransform="matrix(0.1514 0 0 0.1514 522.525 -49.4334)" gradientUnits="userSpaceOnUse" id="SVGID_14_" x1="-3277.4033" x2="-3277.4033" y1="397.1421" y2="335.545">
<stop offset="0" style="stop-color:#00053E"/>
<stop offset="0.1748" style="stop-color:#00073F"/>
<stop offset="0.3297" style="stop-color:#001046"/>
<stop offset="0.4771" style="stop-color:#001950"/>
<stop offset="0.6198" style="stop-color:#00245D"/>
<stop offset="0.758" style="stop-color:#002F6D"/>
<stop offset="0.809" style="stop-color:#003475"/>
<stop offset="0.9226" style="stop-color:#005693"/>
<stop offset="1" style="stop-color:#006CA9"/>
</linearGradient>
<path d="M27.822,5.092c-0.008-0.038-0.087-0.425-0.094-0.46c0.001,0.01,0,0.022-0.007,0.035         c-0.135,0.23-2.691,4.125-2.854,4.527c-0.051,0.127-0.058,0.225-0.006,0.295c0.053,0.07,0.133,0.099,0.219,0.097         c0.009-0.05,0.027-0.104,0.05-0.163c0.163-0.404,2.557-4.044,2.688-4.275C27.831,5.13,27.827,5.106,27.822,5.092z" fill="url(#SVGID_14_)"/>
<linearGradient gradientTransform="matrix(0.1514 0 0 0.1514 522.525 -49.4334)" gradientUnits="userSpaceOnUse" id="SVGID_15_" x1="-3336.9077" x2="-3336.9077" y1="397.1567" y2="335.4257">
<stop offset="0" style="stop-color:#00053E"/>
<stop offset="0.1748" style="stop-color:#00073F"/>
<stop offset="0.3297" style="stop-color:#001046"/>
<stop offset="0.4771" style="stop-color:#001950"/>
<stop offset="0.6198" style="stop-color:#00245D"/>
<stop offset="0.758" style="stop-color:#002F6D"/>
<stop offset="0.809" style="stop-color:#003475"/>
<stop offset="0.9226" style="stop-color:#005693"/>
<stop offset="1" style="stop-color:#006CA9"/>
</linearGradient>
<path d="M17.101,6.48c0.01,0.008,0.016,0.018,0.024,0.025c0.153,0.229,0.236,0.551,0.245,0.885         c0.01,0.069,0.038,0.071,0.075,0.035c0.03-0.032,0.061-0.064,0.088-0.098c-0.045-0.179-0.115-0.34-0.184-0.495         C17.322,6.777,17.205,6.576,17.101,6.48z" fill="url(#SVGID_15_)"/>
<linearGradient gradientTransform="matrix(0.1514 0 0 0.1514 522.525 -49.4334)" gradientUnits="userSpaceOnUse" id="SVGID_16_" x1="-3346.5313" x2="-3346.5313" y1="397.145" y2="335.5155">
<stop offset="0" style="stop-color:#00053E"/>
<stop offset="0.1748" style="stop-color:#00073F"/>
<stop offset="0.3297" style="stop-color:#001046"/>
<stop offset="0.4771" style="stop-color:#001950"/>
<stop offset="0.6198" style="stop-color:#00245D"/>
<stop offset="0.758" style="stop-color:#002F6D"/>
<stop offset="0.809" style="stop-color:#003475"/>
<stop offset="0.9226" style="stop-color:#005693"/>
<stop offset="1" style="stop-color:#006CA9"/>
</linearGradient>
<path d="M18.511,7.609c0.181-0.152,0.374-0.252,0.497-0.205c0.074-0.19,0.041-0.295-0.038-0.346         c-0.12-0.079-0.36,0.039-0.563,0.193c-0.551,0.417-1.015,1.068-1.25,1.359c-0.139,0.171-0.269,0.424-0.631,0.818         c-0.568,0.617-1.324,0.971-2.049,0.727c-0.396-0.135-0.684-0.454-0.792-0.846c-0.021-0.076-0.064-0.096-0.105-0.047         c-0.118,0.146-0.358,0.362-0.558,0.498c-0.024,0.017-0.078,0.049-0.125,0.023c-0.042-0.018-0.192-0.229-0.219-0.287         c-0.003-0.008-0.005-0.016-0.007-0.021c0,0,0,0,0,0.001c0.052,0.26,0.057,0.289,0.13,0.41         c0.08,0.132,0.157,0.225,0.174,0.232c0.047,0.023,0.096,0.002,0.119-0.012c0.156-0.078,0.46-0.313,0.592-0.477         c0.04-0.037,0.076-0.011,0.088,0.028c0.054,0.173,0.137,0.308,0.225,0.448c0.099,0.158,0.293,0.324,0.549,0.393         c0.33,0.093,0.685,0.109,1.15-0.068c0.375-0.145,0.767-0.437,1.07-0.766c0.362-0.392,0.491-0.644,0.628-0.816         C17.634,8.56,17.999,8.046,18.511,7.609z" fill="url(#SVGID_16_)"/>
<linearGradient gradientTransform="matrix(0.1514 0 0 0.1514 522.525 -49.4334)" gradientUnits="userSpaceOnUse" id="SVGID_17_" x1="-3392.998" x2="-3392.998" y1="397.147" y2="335.5498">
<stop offset="0" style="stop-color:#00053E"/>
<stop offset="0.1748" style="stop-color:#00073F"/>
<stop offset="0.3297" style="stop-color:#001046"/>
<stop offset="0.4771" style="stop-color:#001950"/>
<stop offset="0.6198" style="stop-color:#00245D"/>
<stop offset="0.758" style="stop-color:#002F6D"/>
<stop offset="0.809" style="stop-color:#003475"/>
<stop offset="0.9226" style="stop-color:#005693"/>
<stop offset="1" style="stop-color:#006CA9"/>
</linearGradient>
<path d="M8.471,8.625c-0.073-0.287,0.006-0.598,0.121-0.83c0.183-0.369,0.441-0.547,0.698-0.707         C9.396,7.018,9.446,6.951,9.38,6.771C9.362,6.719,9.352,6.626,9.33,6.544C9.338,6.625,9.3,6.695,9.227,6.73         c-0.311,0.158-0.683,0.431-0.868,0.8C8.209,7.832,8.178,8.197,8.408,8.542C8.425,8.572,8.446,8.598,8.471,8.625z" fill="url(#SVGID_17_)"/>
<linearGradient gradientTransform="matrix(0.1514 0 0 0.1514 522.525 -49.4334)" gradientUnits="userSpaceOnUse" id="SVGID_18_" x1="-3365.4155" x2="-3365.4155" y1="397.4976" y2="335.3396">
<stop offset="0" style="stop-color:#00053E"/>
<stop offset="0.1748" style="stop-color:#00073F"/>
<stop offset="0.3297" style="stop-color:#001046"/>
<stop offset="0.4771" style="stop-color:#001950"/>
<stop offset="0.6198" style="stop-color:#00245D"/>
<stop offset="0.758" style="stop-color:#002F6D"/>
<stop offset="0.809" style="stop-color:#003475"/>
<stop offset="0.9226" style="stop-color:#005693"/>
<stop offset="1" style="stop-color:#006CA9"/>
</linearGradient>
<path d="M10.641,4.74c-0.063-0.438,0.265-1.156,1.127-1.44c1.129-0.372,2.385-0.137,3.397,0.079         c0.14-0.088,0.266-0.149,0.389-0.217c0.061-0.032-0.009-0.07-0.028-0.07c-1.302-0.244-2.658-0.563-3.953-0.084         c-0.898,0.336-1.29,1.048-1.102,1.521C10.509,4.621,10.566,4.691,10.641,4.74z" fill="url(#SVGID_18_)"/>
<linearGradient gradientTransform="matrix(0.1514 0 0 0.1514 522.525 -49.4334)" gradientUnits="userSpaceOnUse" id="SVGID_19_" x1="-3373.4561" x2="-3373.4561" y1="397.1489" y2="335.5187">
<stop offset="0" style="stop-color:#00053E"/>
<stop offset="0.1748" style="stop-color:#00073F"/>
<stop offset="0.3297" style="stop-color:#001046"/>
<stop offset="0.4771" style="stop-color:#001950"/>
<stop offset="0.6198" style="stop-color:#00245D"/>
<stop offset="0.758" style="stop-color:#002F6D"/>
<stop offset="0.809" style="stop-color:#003475"/>
<stop offset="0.9226" style="stop-color:#005693"/>
<stop offset="1" style="stop-color:#006CA9"/>
</linearGradient>
<path d="M14.087,6.131c0.43-0.055,0.815-0.077,1.195-0.114c0.111-0.01,0.2-0.021,0.241,0.02         c0.137,0.138,0.297,0.262,0.401,0.324c0.07,0,0.129,0.017,0.167,0.053c0.047-0.006,0.087-0.029,0.113-0.057         c0.05-0.047,0.052-0.104,0.043-0.151c-0.017-0.094-0.042-0.278-0.073-0.331c0.021,0.041,0.01,0.098-0.033,0.145         c-0.029,0.035-0.077,0.066-0.136,0.066c-0.049-0.002-0.078-0.019-0.139-0.053c-0.128-0.069-0.289-0.184-0.393-0.316         c-0.037-0.044-0.054-0.045-0.146-0.041c-0.404,0.023-1.039,0.086-1.47,0.14c-0.102,0.013-0.116,0.031-0.14,0.068         c-0.684,1.128-1.412,2.343-2.215,3.157c-0.86,0.875-1.574,1.104-2.333,1.109c-0.877,0.006-1.658-0.49-1.855-1.363         c0.105,0.488,0.421,1.076,0.784,1.33c0.37,0.262,0.732,0.348,1.159,0.355c0.863,0.014,1.65-0.342,2.486-1.189         c0.802-0.814,1.497-1.951,2.181-3.08C13.948,6.162,13.974,6.146,14.087,6.131z" fill="url(#SVGID_19_)"/>
<linearGradient gradientTransform="matrix(0.1514 0 0 0.1514 522.525 -49.4334)" gradientUnits="userSpaceOnUse" id="SVGID_20_" x1="-3371.9917" x2="-3371.9917" y1="397.2749" y2="335.4221">
<stop offset="0" style="stop-color:#00053E"/>
<stop offset="0.1748" style="stop-color:#00073F"/>
<stop offset="0.3297" style="stop-color:#001046"/>
<stop offset="0.4771" style="stop-color:#001950"/>
<stop offset="0.6198" style="stop-color:#00245D"/>
<stop offset="0.758" style="stop-color:#002F6D"/>
<stop offset="0.809" style="stop-color:#003475"/>
<stop offset="0.9226" style="stop-color:#005693"/>
<stop offset="1" style="stop-color:#006CA9"/>
</linearGradient>
<path d="M12.679,5.986c-0.388,0.012-0.727,0.127-1.055,0.371c-0.097,0.068-0.231,0.061-0.289-0.029         c-0.021-0.032-0.032-0.064-0.033-0.099c-0.008,0.146,0.05,0.36,0.099,0.432c0.052,0.08,0.197,0.121,0.313,0.034         c0.261-0.191,0.499-0.305,0.763-0.355c0.068-0.093,0.141-0.195,0.225-0.312c0.006-0.009,0.008-0.021,0.005-0.026         C12.703,5.99,12.697,5.988,12.679,5.986z" fill="url(#SVGID_20_)"/>
<linearGradient gradientTransform="matrix(0.1514 0 0 0.1514 522.525 -49.4334)" gradientUnits="userSpaceOnUse" id="SVGID_21_" x1="-3302.4375" x2="-3302.4375" y1="396.5454" y2="335.6208">
<stop offset="0" style="stop-color:#00053E"/>
<stop offset="0.1748" style="stop-color:#00073F"/>
<stop offset="0.3297" style="stop-color:#001046"/>
<stop offset="0.4771" style="stop-color:#001950"/>
<stop offset="0.6198" style="stop-color:#00245D"/>
<stop offset="0.758" style="stop-color:#002F6D"/>
<stop offset="0.809" style="stop-color:#003475"/>
<stop offset="0.9226" style="stop-color:#005693"/>
<stop offset="1" style="stop-color:#006CA9"/>
</linearGradient>
<path d="M22.527,2.767c0.006,0.008,0.013,0.018,0.019,0.025C22.54,2.783,22.533,2.775,22.527,2.767z" fill="url(#SVGID_21_)"/>
<linearGradient gradientTransform="matrix(0.1514 0 0 0.1514 522.525 -49.4334)" gradientUnits="userSpaceOnUse" id="SVGID_22_" x1="-3330.0591" x2="-3330.0591" y1="397.1284" y2="335.5567">
<stop offset="0" style="stop-color:#00053E"/>
<stop offset="0.1748" style="stop-color:#00073F"/>
<stop offset="0.3297" style="stop-color:#001046"/>
<stop offset="0.4771" style="stop-color:#001950"/>
<stop offset="0.6198" style="stop-color:#00245D"/>
<stop offset="0.758" style="stop-color:#002F6D"/>
<stop offset="0.809" style="stop-color:#003475"/>
<stop offset="0.9226" style="stop-color:#005693"/>
<stop offset="1" style="stop-color:#006CA9"/>
</linearGradient>
<path d="M14.083,5.341c-0.015,0.02-0.007,0.038,0.021,0.035c0.121-0.005,0.238-0.01,0.354-0.017         c0.423-0.661,0.873-1.04,1.563-1.548c0.051-0.039,0.104-0.066,0.087-0.214c1.382,0.308,2.437,0.816,4.225,0.821         c0.533,0.002,1.286-0.176,1.689-0.42c0.465-0.279,0.592-0.485,0.607-0.704c0.005-0.067-0.012-0.167-0.023-0.222         c-0.017-0.071-0.027-0.166-0.047-0.235c0.007,0.028,0.01,0.062,0.007,0.097c-0.013,0.249-0.204,0.488-0.685,0.75         c-0.542,0.297-1.109,0.388-1.699,0.391c-1.435,0.013-2.77-0.545-4.148-0.846c0.003,0.061,0.018,0.133-0.032,0.172         C15.238,3.964,14.547,4.539,14.083,5.341z" fill="url(#SVGID_22_)"/>
<linearGradient gradientTransform="matrix(0.1514 0 0 0.1514 522.525 -49.4334)" gradientUnits="userSpaceOnUse" id="SVGID_23_" x1="-3346.0518" x2="-3346.0518" y1="397.187" y2="335.3554">
<stop offset="0" style="stop-color:#00053E"/>
<stop offset="0.1748" style="stop-color:#00073F"/>
<stop offset="0.3297" style="stop-color:#001046"/>
<stop offset="0.4771" style="stop-color:#001950"/>
<stop offset="0.6198" style="stop-color:#00245D"/>
<stop offset="0.758" style="stop-color:#002F6D"/>
<stop offset="0.809" style="stop-color:#003475"/>
<stop offset="0.9226" style="stop-color:#005693"/>
<stop offset="1" style="stop-color:#006CA9"/>
</linearGradient>
<path d="M15.949,4.955c0.056-0.051,0.127-0.074,0.188-0.064c0.052-0.105,0.068-0.229,0.003-0.285         c-0.062-0.055-0.159-0.045-0.24,0.012c-0.018,0.018-0.035,0.033-0.054,0.051c-0.14,0.143-0.178,0.33-0.159,0.471         c0.011,0.059,0.034,0.069,0.059,0.064c0.026-0.006,0.053-0.015,0.078-0.025C15.835,5.099,15.869,5.024,15.949,4.955z" fill="url(#SVGID_23_)"/>
<linearGradient gradientTransform="matrix(0.1514 0 0 0.1514 522.525 -49.4334)" gradientUnits="userSpaceOnUse" id="SVGID_24_" x1="-3344.0659" x2="-3344.0659" y1="397.1626" y2="335.537">
<stop offset="0" style="stop-color:#00053E"/>
<stop offset="0.1748" style="stop-color:#00073F"/>
<stop offset="0.3297" style="stop-color:#001046"/>
<stop offset="0.4771" style="stop-color:#001950"/>
<stop offset="0.6198" style="stop-color:#00245D"/>
<stop offset="0.758" style="stop-color:#002F6D"/>
<stop offset="0.809" style="stop-color:#003475"/>
<stop offset="0.9226" style="stop-color:#005693"/>
<stop offset="1" style="stop-color:#006CA9"/>
</linearGradient>
<path d="M16.523,5.425c0.065-0.146,0.104-0.26,0.074-0.508c-0.021-0.175-0.056-0.332-0.101-0.413         c0.087,0.183,0.053,0.415-0.043,0.603c-0.132,0.253-0.348,0.387-0.558,0.452c0,0-0.042,0.009-0.034,0.048         c0.003,0.045,0.151,0.141,0.244,0.205C16.118,5.808,16.135,5.8,16.135,5.8C16.244,5.759,16.421,5.65,16.523,5.425z" fill="url(#SVGID_24_)"/>
<linearGradient gradientTransform="matrix(0.1514 0 0 0.1514 522.525 -49.4334)" gradientUnits="userSpaceOnUse" id="SVGID_25_" x1="-3377.8486" x2="-3377.8486" y1="397.1577" y2="335.5412">
<stop offset="0" style="stop-color:#00053E"/>
<stop offset="0.1748" style="stop-color:#00073F"/>
<stop offset="0.3297" style="stop-color:#001046"/>
<stop offset="0.4771" style="stop-color:#001950"/>
<stop offset="0.6198" style="stop-color:#00245D"/>
<stop offset="0.758" style="stop-color:#002F6D"/>
<stop offset="0.809" style="stop-color:#003475"/>
<stop offset="0.9226" style="stop-color:#005693"/>
<stop offset="1" style="stop-color:#006CA9"/>
</linearGradient>
<path d="M10.164,5.902c0.189,0.119,0.426,0.186,0.696,0.177c0.919-0.032,1.615-0.788,1.846-1.429         c0.063-0.173,0.014-0.356-0.016-0.481c-0.01-0.048-0.026-0.157-0.061-0.234l0,0c0.025,0.063,0.025,0.157-0.023,0.276         c-0.38,0.89-1.103,1.598-1.986,1.627C10.086,5.855,9.69,5.583,9.502,5.18C9.64,5.481,9.919,5.748,10.164,5.902z" fill="url(#SVGID_25_)"/>
</g>
</g>
<g>
<path d="M17.459,0C7.769,0,0,2.904,0,6.545c0,3.62,7.833,6.55,17.459,6.55c9.631,0,17.463-2.938,17.463-6.55        C34.922,2.936,27.09,0,17.459,0z M0.12,6.619C0.116,5.851,0.454,5.09,1.163,4.374c2.5-2.521,9.051-4.226,16.269-4.255        c9.562-0.039,17.355,2.813,17.372,6.355c0.002,0.766-0.356,1.518-1.065,2.235c-2.5,2.521-9.031,4.237-16.249,4.266        C7.928,13.015,0.136,10.164,0.12,6.619z M34.817,6.041c0.004,0.032,0.01,0.063,0.016,0.096        C34.827,6.103,34.821,6.073,34.817,6.041z" fill="#58595B"/>
</g>
<g>
<g>
<linearGradient gradientTransform="matrix(0.2163 0 0 0.2163 520.9512 270.8593)" gradientUnits="userSpaceOnUse" id="SVGID_26_" x1="-2345.8618" x2="-2364.5283" y1="-1178.6382" y2="-1248.3027">
<stop offset="0" style="stop-color:#A6A6A6"/>
<stop offset="0.35" style="stop-color:#D9D9D9"/>
<stop offset="0.65" style="stop-color:#D9D9D9"/>
<stop offset="1" style="stop-color:#A6A6A6"/>
</linearGradient>
<path d="M1.125,4.336c2.514-2.536,9.07-4.242,16.307-4.271c1.002-0.005,1.985,0.024,2.941,0.081         c-0.947-0.061-1.92-0.094-2.915-0.094c-9.652,0-17.406,2.896-17.406,6.493c0,0.173,0.019,0.343,0.055,0.509         C0.08,6.911,0.067,6.765,0.065,6.619C0.062,5.841,0.41,5.058,1.125,4.336z" fill="url(#SVGID_26_)"/>
</g>
<linearGradient gradientTransform="matrix(0.2163 0 0 0.2163 520.9512 270.8593)" gradientUnits="userSpaceOnUse" id="SVGID_27_" x1="-2296.772" x2="-2315.355" y1="-1216.791" y2="-1286.1439">
<stop offset="0" style="stop-color:#A6A6A6"/>
<stop offset="0.35" style="stop-color:#D9D9D9"/>
<stop offset="0.65" style="stop-color:#D9D9D9"/>
<stop offset="1" style="stop-color:#A6A6A6"/>
</linearGradient>
<path d="M33.779,8.749c-2.507,2.527-9.061,4.251-16.287,4.28c-1.022,0.006-2.024-0.023-2.999-0.082        c0.964,0.063,1.956,0.094,2.968,0.094c9.599,0,17.409-2.932,17.409-6.493c0-0.135-0.014-0.27-0.037-0.403        c0.018,0.109,0.025,0.221,0.025,0.332C34.862,7.253,34.495,8.027,33.779,8.749z" fill="url(#SVGID_27_)"/>
</g>
<linearGradient gradientTransform="matrix(0.1514 0 0 0.1514 522.5236 -50.0526)" gradientUnits="userSpaceOnUse" id="SVGID_28_" x1="-3335.9512" x2="-3335.9512" y1="327.6685" y2="416.0021">
<stop offset="0" style="stop-color:#FFFFFF"/>
<stop offset="0.5559" style="stop-color:#FDFDFD"/>
<stop offset="0.691" style="stop-color:#F9F9F9"/>
<stop offset="0.8" style="stop-color:#CCCCCC"/>
<stop offset="1" style="stop-color:#B2B2B2"/>
</linearGradient>
<path d="M17.458,12.28c-9.098,0-16.475-2.566-16.475-5.734S8.36,0.81,17.458,0.81       c9.102,0,16.479,2.567,16.479,5.735S26.56,12.28,17.458,12.28z M17.458,1.306c-8.779,0-15.897,2.346-15.897,5.239       c0,2.895,7.118,5.237,15.897,5.237c8.781,0,15.897-2.343,15.897-5.237C33.356,3.652,26.24,1.306,17.458,1.306z" fill="url(#SVGID_28_)"/>
<linearGradient gradientTransform="matrix(0.1514 0 0 0.1514 522.5236 -49.4373)" gradientUnits="userSpaceOnUse" id="SVGID_29_" x1="-3317.8682" x2="-3317.8682" y1="351.8286" y2="395.7742">
<stop offset="0" style="stop-color:#FFFFFF"/>
<stop offset="0.5559" style="stop-color:#FDFDFD"/>
<stop offset="0.691" style="stop-color:#F9F9F9"/>
<stop offset="0.8" style="stop-color:#CCCCCC"/>
<stop offset="1" style="stop-color:#B2B2B2"/>
</linearGradient>
<path d="M27.721,4.667c0.021-0.039-0.002-0.068-0.055-0.068c-0.262,0-0.607,0.001-0.881,0.001       c-0.066,0-0.099,0.009-0.131,0.067c-0.1,0.195-1.334,2.043-1.563,2.403C25.053,7.125,25.006,7.116,25,7.054       c-0.022-0.213-0.206-0.458-0.498-0.576c-0.221-0.089-0.436-0.104-0.662-0.074c-0.404,0.053-0.766,0.268-1.084,0.509       c-0.479,0.363-0.893,0.836-1.427,1.185c-0.29,0.189-0.688,0.355-0.954,0.109C20.133,7.981,20.16,7.484,20.53,7.1       c0.041-0.04,0.086-0.008,0.079,0.03c-0.036,0.173,0.007,0.346,0.138,0.467c0.164,0.146,0.395,0.162,0.59,0.064       c0.234-0.116,0.37-0.338,0.41-0.591c0.063-0.393-0.24-0.739-0.619-0.765c-0.306-0.023-0.603,0.084-0.889,0.32       c-0.141,0.12-0.223,0.207-0.349,0.386c-0.03,0.042-0.077,0.046-0.076-0.019c0.016-0.502-0.192-0.783-0.606-0.793       c-0.324-0.008-0.669,0.168-0.934,0.381c-0.299,0.237-0.555,0.55-0.829,0.844C17.408,7.461,17.38,7.459,17.37,7.39       c-0.009-0.334-0.092-0.656-0.245-0.885c-0.055-0.08-0.17-0.119-0.265-0.064c-0.046,0.023-0.202,0.095-0.315,0.186       c-0.054,0.047-0.078,0.113-0.051,0.199c0.147,0.496,0.116,1.062-0.084,1.539c-0.187,0.438-0.545,0.832-0.971,0.965       c-0.277,0.089-0.567,0.047-0.748-0.201c-0.245-0.342-0.146-0.936,0.223-1.427c0.324-0.434,0.791-0.71,1.259-0.886       c0.054-0.022,0.067-0.058,0.051-0.104c-0.026-0.076-0.066-0.182-0.083-0.229c-0.043-0.113-0.163-0.133-0.31-0.117       c-0.338,0.041-0.646,0.156-0.948,0.32c-0.793,0.422-1.19,1.242-1.364,1.684c-0.083,0.211-0.156,0.344-0.25,0.459       c-0.123,0.158-0.28,0.301-0.567,0.552c-0.026,0.024-0.046,0.071-0.023,0.118c0.027,0.059,0.178,0.27,0.219,0.287       c0.046,0.025,0.101-0.007,0.125-0.023c0.199-0.136,0.44-0.352,0.558-0.498c0.041-0.049,0.084-0.029,0.105,0.047       c0.109,0.392,0.397,0.711,0.792,0.846c0.726,0.244,1.481-0.109,2.049-0.727c0.363-0.395,0.492-0.647,0.631-0.818       c0.235-0.291,0.699-0.942,1.25-1.359c0.202-0.154,0.442-0.272,0.563-0.193c0.097,0.063,0.128,0.207-0.028,0.488       c-0.563,1.029-1.388,2.236-1.542,2.527c-0.027,0.051-0.003,0.092,0.05,0.092c0.294-0.001,0.586-0.001,0.854-0.001       c0.045-0.002,0.064-0.022,0.086-0.054c0.435-0.676,0.841-1.318,1.275-1.984c0.023-0.038,0.047-0.008,0.048,0.009       C19.721,8.29,19.759,8.5,19.849,8.64c0.167,0.256,0.399,0.365,0.659,0.367c0.203,0.003,0.309-0.029,0.531-0.111       c0.182-0.068,0.326-0.156,0.436-0.234c0.066-0.045,0.079,0.03,0.076,0.042c-0.1,0.536,0.022,1.171,0.557,1.436       c0.639,0.314,1.34-0.128,1.742-0.528c0.039-0.037,0.081-0.033,0.086,0.05c0.009,0.152,0.077,0.332,0.203,0.458       c0.338,0.341,1.021,0.206,1.705-0.323c0.439-0.339,0.9-0.819,1.316-1.327c0.014-0.019,0.023-0.051-0.002-0.082       C27.093,8.32,27,8.244,26.94,8.185c-0.027-0.023-0.071-0.018-0.094,0.002c-0.428,0.404-0.813,0.865-1.366,1.248       c-0.185,0.131-0.483,0.234-0.618,0.055c-0.052-0.07-0.045-0.168,0.006-0.295C25.03,8.792,27.586,4.898,27.721,4.667z        M24.34,7.933c0.003,0.031,0.044,0.059,0.081,0.073c0.015,0.005,0.02,0.015,0.005,0.045c-0.108,0.234-0.209,0.368-0.346,0.57       c-0.123,0.188-0.265,0.334-0.436,0.474c-0.259,0.213-0.618,0.445-0.912,0.289c-0.131-0.067-0.188-0.252-0.186-0.4       c0.007-0.418,0.191-0.85,0.535-1.272c0.421-0.516,0.883-0.785,1.188-0.638c0.315,0.15,0.214,0.516,0.074,0.803       C24.334,7.897,24.334,7.915,24.34,7.933z" fill="url(#SVGID_29_)"/>
<linearGradient gradientTransform="matrix(0.1514 0 0 0.1514 522.5236 -49.4373)" gradientUnits="userSpaceOnUse" id="SVGID_30_" x1="-3352.7397" x2="-3352.7397" y1="335.0132" y2="395.9412">
<stop offset="0" style="stop-color:#FFFFFF"/>
<stop offset="0.5559" style="stop-color:#FDFDFD"/>
<stop offset="0.691" style="stop-color:#F9F9F9"/>
<stop offset="0.8" style="stop-color:#CCCCCC"/>
<stop offset="1" style="stop-color:#B2B2B2"/>
</linearGradient>
<path d="M9.17,10.15c-0.954,0.008-1.794-0.582-1.892-1.603c-0.054-0.566,0.105-1.07,0.428-1.483       c0.282-0.37,0.764-0.678,1.168-0.753C9.007,6.287,9.187,6.302,9.259,6.39c0.116,0.135,0.082,0.281-0.032,0.34       c-0.311,0.158-0.683,0.431-0.868,0.8C8.209,7.832,8.178,8.197,8.408,8.542c0.382,0.579,1.45,0.595,2.442-0.327       c0.245-0.226,0.467-0.442,0.689-0.699c0.437-0.499,0.583-0.683,1.164-1.488c0.006-0.009,0.008-0.021,0.005-0.026       c-0.005-0.012-0.011-0.014-0.029-0.016c-0.388,0.012-0.727,0.127-1.055,0.371c-0.097,0.068-0.231,0.061-0.289-0.029       c-0.067-0.104-0.019-0.238,0.088-0.313c0.528-0.368,1.106-0.436,1.695-0.534c0,0,0.042,0.003,0.077-0.043       c0.241-0.311,0.424-0.593,0.681-0.906c0.261-0.319,0.597-0.61,0.853-0.831c0.36-0.309,0.588-0.412,0.824-0.539       c0.061-0.032-0.009-0.07-0.028-0.07c-1.302-0.244-2.658-0.563-3.953-0.084c-0.898,0.336-1.29,1.048-1.102,1.521       c0.135,0.336,0.58,0.393,0.993,0.189c0.344-0.169,0.664-0.441,0.89-0.791c0.127-0.195,0.395-0.055,0.251,0.283       c-0.38,0.89-1.103,1.598-1.986,1.627C9.868,5.862,9.384,5.31,9.385,4.628c0.003-1.344,1.5-2.229,3.071-2.359       c1.893-0.158,3.687,0.346,5.566,0.574c1.441,0.174,2.818,0.179,4.268-0.154c0.169-0.037,0.291,0.072,0.278,0.246       c-0.013,0.249-0.204,0.488-0.685,0.75c-0.542,0.297-1.109,0.388-1.699,0.391c-1.435,0.013-2.77-0.545-4.148-0.846       c0.003,0.061,0.018,0.133-0.032,0.172c-0.765,0.563-1.456,1.137-1.92,1.939c-0.015,0.02-0.007,0.038,0.021,0.035       c0.399-0.021,0.761-0.031,1.138-0.061c0.063-0.006,0.067-0.023,0.06-0.07c-0.032-0.278,0.05-0.594,0.295-0.811       c0.249-0.225,0.56-0.25,0.769-0.09c0.235,0.184,0.214,0.516,0.086,0.762c-0.132,0.253-0.348,0.387-0.558,0.452       c0,0-0.042,0.009-0.034,0.048c0.007,0.064,0.289,0.221,0.313,0.264c0.023,0.039,0.011,0.101-0.032,0.148       c-0.029,0.035-0.077,0.066-0.136,0.066c-0.049-0.002-0.078-0.019-0.139-0.053c-0.128-0.069-0.289-0.184-0.393-0.316       c-0.037-0.044-0.054-0.045-0.146-0.041c-0.404,0.023-1.039,0.086-1.47,0.14c-0.102,0.013-0.116,0.031-0.14,0.068       c-0.684,1.128-1.412,2.343-2.215,3.157C10.643,9.916,9.93,10.144,9.17,10.15z M15.688,5.138       c0.011,0.059,0.034,0.069,0.059,0.064c0.132-0.025,0.274-0.133,0.358-0.258c0.078-0.113,0.112-0.275,0.036-0.34       c-0.069-0.059-0.178-0.041-0.261,0.03C15.715,4.779,15.667,4.985,15.688,5.138L15.688,5.138" fill="url(#SVGID_30_)"/>
</g>
</g>
</g>
</g>
</g>
</svg>
